<?xml version="1.0" encoding="utf-8"?>
<!-- Generator: Adobe Illustrator 27.5.0, SVG Export Plug-In . SVG Version: 6.00 Build 0)  -->
<svg version="1.1" id="Layer_1" xmlns="http://www.w3.org/2000/svg" xmlns:xlink="http://www.w3.org/1999/xlink" x="0px" y="0px"
	 viewBox="0 0 8000 5000" style="enable-background:new 0 0 8000 5000;" xml:space="preserve">
<g>
	<rect x="0.71" y="0.963" style="fill-rule:evenodd;clip-rule:evenodd;fill:#01052D;" width="7998.459" height="4999.037"/>
	<g>
		<defs>
			<path id="SVGID_1_" d="M0.71,1852.796c0,0,1222.522,394.447,1667.835-728.694C2113.86,0.963,2923.517,1306.805,3112.438,0.963
				H0.71V1852.796z"/>
		</defs>
		<clipPath id="SVGID_00000028317170885560303600000004112664895177225370_">
			<use xlink:href="#SVGID_1_"  style="overflow:visible;"/>
		</clipPath>
		
			<linearGradient id="SVGID_00000150081005441504642890000016903927984924192404_" gradientUnits="userSpaceOnUse" x1="1743.8112" y1="1195.9384" x2="-175.2161" y2="459.6884">
			<stop  offset="0" style="stop-color:#0049E7"/>
			<stop  offset="1" style="stop-color:#03247D"/>
		</linearGradient>
		
			<rect x="0.71" y="0.963" style="clip-path:url(#SVGID_00000028317170885560303600000004112664895177225370_);fill:url(#SVGID_00000150081005441504642890000016903927984924192404_);" width="3111.728" height="2246.281"/>
	</g>
	<g>
		<defs>
			<path id="SVGID_00000177464828203701672580000016277303917231243678_" d="M0.71,2783.904
				c2761.553,397.102,1471.062-1845.63,2808.106-1774.505c634.235,33.737,528.817-727.309,447.85-1008.435h-144.227
				c-188.921,1305.842-998.578,0-1443.893,1123.14C1223.232,2247.244,0.71,1852.796,0.71,1852.796V2783.904z"/>
		</defs>
		<clipPath id="SVGID_00000182492549110957107980000006520255992426240906_">
			<use xlink:href="#SVGID_00000177464828203701672580000016277303917231243678_"  style="overflow:visible;"/>
		</clipPath>
		
			<linearGradient id="SVGID_00000011012439409982272990000003647510273668252587_" gradientUnits="userSpaceOnUse" x1="1998.0492" y1="2678.4014" x2="1527.3684" y2="825.0914">
			<stop  offset="0" style="stop-color:#021B8D"/>
			<stop  offset="1" style="stop-color:#01052D"/>
		</linearGradient>
		
			<rect x="0.71" y="0.963" style="clip-path:url(#SVGID_00000182492549110957107980000006520255992426240906_);fill:url(#SVGID_00000011012439409982272990000003647510273668252587_);" width="3442.341" height="3180.042"/>
	</g>
	<g>
		<defs>
			<path id="SVGID_00000029739735480658195510000008899828468304184248_" d="M7999.169,3148.165
				c0,0-1222.523-394.447-1667.838,728.694S5076.361,3694.158,4887.44,5000h3111.729V3148.165z"/>
		</defs>
		<clipPath id="SVGID_00000173146655291190028330000013084300279115557512_">
			<use xlink:href="#SVGID_00000029739735480658195510000008899828468304184248_"  style="overflow:visible;"/>
		</clipPath>
		
			<linearGradient id="SVGID_00000132070975872564596790000009867516633445675919_" gradientUnits="userSpaceOnUse" x1="6256.0986" y1="3805.0361" x2="8175.1265" y2="4541.2861">
			<stop  offset="0" style="stop-color:#0049E7"/>
			<stop  offset="1" style="stop-color:#03247D"/>
		</linearGradient>
		
			<rect x="4887.44" y="2753.718" style="clip-path:url(#SVGID_00000173146655291190028330000013084300279115557512_);fill:url(#SVGID_00000132070975872564596790000009867516633445675919_);" width="3111.729" height="2246.282"/>
	</g>
	<g>
		<defs>
			<path id="SVGID_00000121265508200433352630000014696324291432993711_" d="M7999.169,2217.06
				c-2761.554-397.102-1471.063,1845.63-2808.107,1774.505c-634.235-33.739-528.817,727.309-447.85,1008.435h144.228
				c188.92-1305.842,998.577,0,1443.891-1123.141s1667.838-728.694,1667.838-728.694V2217.06z"/>
		</defs>
		<clipPath id="SVGID_00000030486674783159187030000015035419346212061577_">
			<use xlink:href="#SVGID_00000121265508200433352630000014696324291432993711_"  style="overflow:visible;"/>
		</clipPath>
		
			<linearGradient id="SVGID_00000101803543007942587160000016625956280059393184_" gradientUnits="userSpaceOnUse" x1="6001.8335" y1="2322.4968" x2="6472.5142" y2="4175.9424">
			<stop  offset="0" style="stop-color:#021B8D"/>
			<stop  offset="1" style="stop-color:#01052D"/>
		</linearGradient>
		
			<rect x="4556.828" y="1819.958" style="clip-path:url(#SVGID_00000030486674783159187030000015035419346212061577_);fill:url(#SVGID_00000101803543007942587160000016625956280059393184_);" width="3442.342" height="3180.042"/>
	</g>
</g>
</svg>
